<svg width="267" height="99" viewBox="0 0 267 99" fill="none" xmlns="http://www.w3.org/2000/svg">
<path d="M120.648 73C119.453 73 118.493 72.5093 117.768 71.528L102.984 52.072L108.808 46.12L124.104 66.344C124.701 67.1547 125 68.0293 125 68.968C125 70.1627 124.552 71.144 123.656 71.912C122.76 72.6373 121.757 73 120.648 73ZM121.416 27.88C122.44 27.88 123.272 28.3067 123.912 29.16C124.595 29.9707 124.936 30.8027 124.936 31.656C124.936 32.552 124.552 33.384 123.784 34.152L96.968 59.816L96.648 50.664L118.28 29.352C119.261 28.3707 120.307 27.88 121.416 27.88ZM93.768 73C92.5733 73 91.6133 72.6373 90.888 71.912C90.1627 71.144 89.8 70.2053 89.8 69.096V32.104C89.8 30.9947 90.184 30.0773 90.952 29.352C91.72 28.584 92.7013 28.2 93.896 28.2C95.0907 28.2 96.0293 28.584 96.712 29.352C97.4373 30.0773 97.8 30.9947 97.8 32.104V69.096C97.8 70.2053 97.4373 71.144 96.712 71.912C95.9867 72.6373 95.0053 73 93.768 73ZM159.13 38.12C160.239 38.12 161.156 38.4827 161.882 39.208C162.607 39.9333 162.97 40.872 162.97 42.024V69.096C162.97 70.2053 162.607 71.144 161.882 71.912C161.156 72.6373 160.239 73 159.13 73C158.02 73 157.103 72.6373 156.378 71.912C155.652 71.144 155.29 70.2053 155.29 69.096V65.96L156.698 66.536C156.698 67.0907 156.399 67.7733 155.802 68.584C155.204 69.352 154.394 70.12 153.37 70.888C152.346 71.656 151.13 72.3173 149.722 72.872C148.356 73.384 146.863 73.64 145.242 73.64C142.298 73.64 139.631 72.8933 137.242 71.4C134.852 69.864 132.954 67.7733 131.546 65.128C130.18 62.44 129.498 59.368 129.498 55.912C129.498 52.4133 130.18 49.3413 131.546 46.696C132.954 44.008 134.831 41.9173 137.178 40.424C139.524 38.888 142.127 38.12 144.986 38.12C146.82 38.12 148.506 38.3973 150.042 38.952C151.578 39.5067 152.9 40.2107 154.01 41.064C155.162 41.9173 156.036 42.792 156.634 43.688C157.274 44.5413 157.594 45.2667 157.594 45.864L155.29 46.696V42.024C155.29 40.9147 155.652 39.9973 156.378 39.272C157.103 38.504 158.02 38.12 159.13 38.12ZM146.202 66.6C148.079 66.6 149.722 66.1307 151.13 65.192C152.538 64.2533 153.626 62.9733 154.394 61.352C155.204 59.7307 155.61 57.9173 155.61 55.912C155.61 53.864 155.204 52.0293 154.394 50.408C153.626 48.7867 152.538 47.5067 151.13 46.568C149.722 45.6293 148.079 45.16 146.202 45.16C144.367 45.16 142.746 45.6293 141.338 46.568C139.93 47.5067 138.82 48.7867 138.01 50.408C137.242 52.0293 136.858 53.864 136.858 55.912C136.858 57.9173 137.242 59.7307 138.01 61.352C138.82 62.9733 139.93 64.2533 141.338 65.192C142.746 66.1307 144.367 66.6 146.202 66.6ZM199.942 38.12C201.051 38.12 201.969 38.4827 202.694 39.208C203.419 39.9333 203.782 40.872 203.782 42.024V69.096C203.782 70.2053 203.419 71.144 202.694 71.912C201.969 72.6373 201.051 73 199.942 73C198.833 73 197.915 72.6373 197.19 71.912C196.465 71.144 196.102 70.2053 196.102 69.096V65.96L197.51 66.536C197.51 67.0907 197.211 67.7733 196.614 68.584C196.017 69.352 195.206 70.12 194.182 70.888C193.158 71.656 191.942 72.3173 190.534 72.872C189.169 73.384 187.675 73.64 186.054 73.64C183.11 73.64 180.443 72.8933 178.054 71.4C175.665 69.864 173.766 67.7733 172.358 65.128C170.993 62.44 170.31 59.368 170.31 55.912C170.31 52.4133 170.993 49.3413 172.358 46.696C173.766 44.008 175.643 41.9173 177.99 40.424C180.337 38.888 182.939 38.12 185.798 38.12C187.633 38.12 189.318 38.3973 190.854 38.952C192.39 39.5067 193.713 40.2107 194.822 41.064C195.974 41.9173 196.849 42.792 197.446 43.688C198.086 44.5413 198.406 45.2667 198.406 45.864L196.102 46.696V42.024C196.102 40.9147 196.465 39.9973 197.19 39.272C197.915 38.504 198.833 38.12 199.942 38.12ZM187.014 66.6C188.891 66.6 190.534 66.1307 191.942 65.192C193.35 64.2533 194.438 62.9733 195.206 61.352C196.017 59.7307 196.422 57.9173 196.422 55.912C196.422 53.864 196.017 52.0293 195.206 50.408C194.438 48.7867 193.35 47.5067 191.942 46.568C190.534 45.6293 188.891 45.16 187.014 45.16C185.179 45.16 183.558 45.6293 182.15 46.568C180.742 47.5067 179.633 48.7867 178.822 50.408C178.054 52.0293 177.67 53.864 177.67 55.912C177.67 57.9173 178.054 59.7307 178.822 61.352C179.633 62.9733 180.742 64.2533 182.15 65.192C183.558 66.1307 185.179 66.6 187.014 66.6ZM230.082 38.12C233.495 38.12 236.012 38.952 237.634 40.616C239.255 42.2373 240.322 44.3493 240.833 46.952L239.746 46.376L240.257 45.352C240.77 44.3707 241.559 43.3253 242.626 42.216C243.692 41.064 244.972 40.104 246.466 39.336C248.002 38.5253 249.708 38.12 251.586 38.12C254.658 38.12 256.983 38.7813 258.562 40.104C260.183 41.4267 261.292 43.1973 261.89 45.416C262.487 47.592 262.786 50.024 262.786 52.712V69.096C262.786 70.2053 262.423 71.144 261.698 71.912C260.972 72.6373 260.055 73 258.946 73C257.836 73 256.919 72.6373 256.194 71.912C255.468 71.144 255.106 70.2053 255.106 69.096V52.712C255.106 51.304 254.935 50.0453 254.594 48.936C254.252 47.784 253.634 46.8667 252.738 46.184C251.842 45.5013 250.562 45.16 248.898 45.16C247.276 45.16 245.89 45.5013 244.738 46.184C243.586 46.8667 242.711 47.784 242.114 48.936C241.559 50.0453 241.282 51.304 241.282 52.712V69.096C241.282 70.2053 240.919 71.144 240.194 71.912C239.468 72.6373 238.551 73 237.442 73C236.332 73 235.415 72.6373 234.69 71.912C233.964 71.144 233.602 70.2053 233.602 69.096V52.712C233.602 51.304 233.431 50.0453 233.09 48.936C232.748 47.784 232.13 46.8667 231.234 46.184C230.338 45.5013 229.058 45.16 227.394 45.16C225.772 45.16 224.386 45.5013 223.234 46.184C222.082 46.8667 221.207 47.784 220.61 48.936C220.055 50.0453 219.778 51.304 219.778 52.712V69.096C219.778 70.2053 219.415 71.144 218.69 71.912C217.964 72.6373 217.047 73 215.938 73C214.828 73 213.911 72.6373 213.186 71.912C212.46 71.144 212.098 70.2053 212.098 69.096V42.664C212.098 41.5547 212.46 40.6373 213.186 39.912C213.911 39.144 214.828 38.76 215.938 38.76C217.047 38.76 217.964 39.144 218.69 39.912C219.415 40.6373 219.778 41.5547 219.778 42.664V45.416L218.818 45.224C219.202 44.4987 219.735 43.7307 220.418 42.92C221.1 42.0667 221.932 41.2773 222.914 40.552C223.895 39.8267 224.983 39.2507 226.178 38.824C227.372 38.3547 228.674 38.12 230.082 38.12Z" fill="black"/>
<path d="M3 33.7692L32.254 6L60 33.7692M60 33.7692L4.50794 89.3077V39.2023L60 87.4967V33.7692Z" stroke="#1F42AD" stroke-width="7.30769"/>
</svg>
